<svg width="55" height="50" viewBox="0 0 55 50" fill="none" xmlns="http://www.w3.org/2000/svg">
<path d="M5.50314 25.2287C5.50314 29.6444 9.04403 33.2363 13.4091 33.2363H20.7943C21.2574 33.2363 21.618 32.7949 21.618 32.4054V17.7314C21.6184 17.2856 21.7934 16.8583 22.1046 16.5431C22.4158 16.2279 22.8378 16.0506 23.2778 16.0502C23.5659 16.0498 23.849 16.1256 24.0993 16.2699C24.3496 16.4143 24.5584 16.6223 24.7051 16.8734L33.9822 33.0741C34.0612 33.203 34.1794 33.3025 34.319 33.3576C34.4586 33.4126 34.6121 33.4203 34.7564 33.3794C34.9007 33.3386 35.028 33.2513 35.1191 33.1309C35.2103 33.0105 35.2603 32.8633 35.2618 32.7116V17.7314C35.2623 17.2856 35.4373 16.8583 35.7485 16.5431C36.0597 16.2279 36.4816 16.0506 36.9217 16.0502C37.2097 16.0498 37.4929 16.1256 37.7432 16.2699C37.9935 16.4143 38.2023 16.6223 38.349 16.8734L47.6168 33.073C47.6958 33.2019 47.8139 33.3014 47.9535 33.3564C48.0931 33.4115 48.2465 33.4192 48.3907 33.3784C48.535 33.3376 48.6623 33.2505 48.7535 33.1302C48.8447 33.0098 48.8948 32.8627 48.8964 32.7111V13.2892H45.9858V24.8496L40.541 15.3594C39.7713 14.0263 38.3114 13.1843 36.7572 13.1843C34.3232 13.1843 32.3447 15.1845 32.3447 17.6497V24.8502L26.8999 15.3599C26.128 14.0274 24.6681 13.186 23.1155 13.186C20.6816 13.186 18.703 15.1861 18.703 17.6514V29.4811C18.7047 29.9114 18.3849 30.2866 17.9197 30.2877H13.4309C12.1061 30.2877 10.8355 29.7547 9.89865 28.8058C8.96184 27.8569 8.43554 26.57 8.43554 25.2281C8.43554 23.8862 8.96184 22.5993 9.89865 21.6504C10.8355 20.7016 12.1061 20.1685 13.4309 20.1685H17.1908V17.221H13.3993C9.04947 17.221 5.50314 20.8074 5.50314 25.2287ZM49.865 13.2903V32.7122C49.8646 33.1579 49.6896 33.5853 49.3784 33.9005C49.0672 34.2157 48.6452 34.3929 48.2052 34.3934C47.9172 34.3938 47.6341 34.3181 47.3838 34.1738C47.1335 34.0296 46.9246 33.8217 46.7779 33.5707L37.5089 17.37C37.43 17.2411 37.3118 17.1416 37.1723 17.0865C37.0327 17.0315 36.8793 17.0238 36.735 17.0646C36.5908 17.1054 36.4635 17.1925 36.3723 17.3128C36.2811 17.4332 36.2309 17.5802 36.2293 17.7319V32.7122C36.2289 33.1579 36.0539 33.5853 35.7427 33.9005C35.4315 34.2157 35.0096 34.3929 34.5695 34.3934C34.2809 34.3938 33.9973 34.3176 33.7468 34.1724C33.4964 34.0272 33.2879 33.818 33.1422 33.5657L23.8656 17.37C23.7474 17.1658 23.5159 17.0389 23.2757 17.0389C23.0929 17.0395 22.9179 17.1133 22.7886 17.2441C22.6594 17.375 22.5866 17.5524 22.586 17.7374V32.4054C22.586 33.371 21.7482 34.219 20.7927 34.219H13.4086C11.0552 34.2167 8.79882 33.2687 7.13472 31.5832C5.47061 29.8977 4.5347 27.6123 4.53239 25.2287C4.5347 22.845 5.47061 20.5596 7.13472 18.8741C8.79882 17.1886 11.0552 16.2406 13.4086 16.2383H17.2001V13.2903H13.4184C6.9086 13.2903 1.63104 18.6351 1.63104 25.2292C1.63104 31.8233 6.90315 37.1682 13.4184 37.1682H20.8739C23.6979 37.1698 25.5141 35.4936 25.5043 32.4021V25.5923L30.949 35.0825C31.7188 36.4156 33.1787 37.2575 34.7329 37.2575C37.1668 37.2575 39.1454 35.2574 39.1454 32.7927V25.5923L44.5902 35.0825C45.3605 36.4156 46.8204 37.2575 48.374 37.2575C50.808 37.2575 52.7865 35.2574 52.7865 32.7927V13.2903H49.865Z" fill="white"/>
</svg>
