<svg width="62" height="62" viewBox="0 0 62 62" fill="none" xmlns="http://www.w3.org/2000/svg">
<g clip-path="url(#clip0_55_2477)">
<path d="M31 62C48.1208 62 62 48.1208 62 31C62 13.8792 48.1208 0 31 0C13.8792 0 0 13.8792 0 31C0 48.1208 13.8792 62 31 62Z" fill="#3B5998"/>
<path d="M38.7938 32.2136H33.2622V52.4787H24.8814V32.2136H20.8955V25.0916H24.8814V20.4829C24.8814 17.1871 26.447 12.0264 33.3368 12.0264L39.5448 12.0523V18.9654H35.0405C34.3017 18.9654 33.2628 19.3346 33.2628 20.9067V25.0982H39.526L38.7938 32.2136Z" fill="white"/>
</g>
<defs>
<clipPath id="clip0_55_2477">
<rect width="62" height="62" fill="white"/>
</clipPath>
</defs>
</svg>
