<svg width="21" height="20" viewBox="0 0 21 20" fill="none" xmlns="http://www.w3.org/2000/svg">
<path d="M19.8636 10.0338C19.8636 4.95256 15.7595 0.833416 10.6969 0.833416C5.63434 0.833416 1.53027 4.95256 1.53027 10.0338C1.53027 14.3486 4.48982 17.969 8.48249 18.9632V12.8453H6.59225V10.0338H8.48249V8.82231C8.48249 5.6908 9.89445 4.23935 12.9576 4.23935C13.5383 4.23935 14.5404 4.35362 14.9503 4.46793V7.01657C14.7339 6.99372 14.3582 6.98227 13.8913 6.98227C12.3882 6.98227 11.8075 7.55372 11.8075 9.03947V10.0338H14.8016L14.2873 12.8453H11.8075V19.1667C16.3463 18.6165 19.8636 14.7377 19.8636 10.0338Z" fill="#5F7896"/>
</svg>
