<svg width="21" height="20" viewBox="0 0 21 20" fill="none" xmlns="http://www.w3.org/2000/svg">
<path fill-rule="evenodd" clip-rule="evenodd" d="M3.19696 3.33333C3.19696 2.8731 3.57006 2.5 4.03029 2.5C7.78753 2.5 11.3909 3.99256 14.0476 6.64932C16.7044 9.30609 18.197 12.9094 18.197 16.6667C18.197 17.1269 17.8239 17.5 17.3636 17.5C16.9034 17.5 16.5303 17.1269 16.5303 16.6667C16.5303 13.3515 15.2133 10.172 12.8691 7.82783C10.5249 5.48363 7.3455 4.16667 4.03029 4.16667C3.57006 4.16667 3.19696 3.79357 3.19696 3.33333ZM3.19696 9.16667C3.19696 8.70643 3.57006 8.33333 4.03029 8.33333C6.24043 8.33333 8.36005 9.21131 9.92285 10.7741C11.4857 12.3369 12.3636 14.4565 12.3636 16.6667C12.3636 17.1269 11.9905 17.5 11.5303 17.5C11.0701 17.5 10.697 17.1269 10.697 16.6667C10.697 14.8986 9.99458 13.2029 8.74434 11.9526C7.4941 10.7024 5.7984 10 4.03029 10C3.57006 10 3.19696 9.6269 3.19696 9.16667ZM4.86363 14.1667C3.94315 14.1667 3.19696 14.9129 3.19696 15.8333C3.19696 16.7538 3.94315 17.5 4.86363 17.5C5.7841 17.5 6.53029 16.7538 6.53029 15.8333C6.53029 14.9129 5.7841 14.1667 4.86363 14.1667Z" fill="#5F7896"/>
</svg>
