<svg width="62" height="62" viewBox="0 0 62 62" fill="none" xmlns="http://www.w3.org/2000/svg">
<g clip-path="url(#clip0_55_2481)">
<path d="M61.2017 24.9676H58.7207V24.8398H30.9995V37.1603H48.4069C45.8673 44.3323 39.0433 49.4808 30.9995 49.4808C20.7935 49.4808 12.5188 41.206 12.5188 31C12.5188 20.794 20.7935 12.5192 30.9995 12.5192C35.7106 12.5192 39.9966 14.2965 43.26 17.1995L51.9721 8.48736C46.471 3.36048 39.1126 0.19873 30.9995 0.19873C13.9895 0.19873 0.198242 13.99 0.198242 31C0.198242 48.01 13.9895 61.8013 30.9995 61.8013C48.0095 61.8013 61.8008 48.01 61.8008 31C61.8008 28.9348 61.5883 26.9188 61.2017 24.9676Z" fill="#FFC107"/>
<path d="M3.75 16.6636L13.8698 24.0851C16.608 17.3058 23.2395 12.5192 30.9999 12.5192C35.7109 12.5192 39.9969 14.2965 43.2603 17.1995L51.9725 8.48736C46.4714 3.36048 39.1129 0.19873 30.9999 0.19873C19.1691 0.19873 8.90921 6.87799 3.75 16.6636Z" fill="#FF3D00"/>
<path d="M30.9999 61.8013C38.9559 61.8013 46.185 58.7566 51.6507 53.8053L42.1177 45.7384C38.9213 48.1692 35.0156 49.4839 30.9999 49.4808C22.9885 49.4808 16.1861 44.3724 13.6234 37.2434L3.5791 44.9822C8.67671 54.9572 19.029 61.8013 30.9999 61.8013Z" fill="#4CAF50"/>
<path d="M61.2022 24.9675H58.7212V24.8397H31V37.1602H48.4073C47.1926 40.5737 45.0044 43.5564 42.1131 45.7399L42.1177 45.7369L51.6507 53.8037C50.9762 54.4167 61.8013 46.4006 61.8013 31C61.8013 28.9348 61.5888 26.9188 61.2022 24.9675Z" fill="#1976D2"/>
</g>
<defs>
<clipPath id="clip0_55_2481">
<rect width="62" height="62" fill="white"/>
</clipPath>
</defs>
</svg>
