<svg width="139" height="49" viewBox="0 0 139 49" fill="none" xmlns="http://www.w3.org/2000/svg">
<path fill-rule="evenodd" clip-rule="evenodd" d="M21.0483 17.7502H33.6136L23.4498 25.2158L27.3309 37.2906L17.1671 29.825L6.99119 37.2906L10.8845 25.2158L0.708557 17.7379L13.2738 17.7502L17.1671 5.66309L21.0483 17.7502ZM50.7274 17.7493H36.8158H36.8037V20.3726H42.2495V35.1199H45.2574V20.3726H50.7274V17.7493ZM52.7044 22.5424H50.1331H50.121V35.1076H52.862V29.1254C52.862 28.4266 52.9469 27.8137 53.1289 27.2743C53.3108 26.7349 53.5534 26.2936 53.8566 25.9258C54.1598 25.5703 54.5115 25.2884 54.9239 25.1045C55.3363 24.9206 55.7729 24.8226 56.2338 24.8226C56.4279 24.8226 56.6219 24.8348 56.8281 24.8593C57.0343 24.8839 57.2284 24.9084 57.4224 24.9451V22.2727C57.3511 22.2662 57.2833 22.2561 57.2172 22.2463C57.1594 22.2378 57.1029 22.2294 57.0464 22.2237C56.9251 22.2114 56.6947 22.1992 56.3793 22.1992C55.967 22.1992 55.5546 22.285 55.1544 22.4444C54.7541 22.616 54.3902 22.8244 54.0628 23.0941C53.7353 23.3515 53.4563 23.658 53.2259 23.9767C52.9955 24.2954 52.8378 24.6264 52.7529 24.9697H52.7044V22.5424ZM67.3315 35.1199H70.0241V22.5547H67.283V29.8486C67.283 30.339 67.2345 30.7926 67.1253 31.2094C67.0162 31.6262 66.8464 31.9939 66.6038 32.2881C66.3734 32.5946 66.058 32.8275 65.6699 33.0114C65.2818 33.1953 64.8088 33.2811 64.2266 33.2811C63.4746 33.2811 62.8803 33.0482 62.4679 32.5946C62.0434 32.141 61.8372 31.3565 61.8372 30.2532V22.5424H59.0962V30.5229C59.0962 32.1778 59.46 33.4159 60.1877 34.2373C60.9155 35.0586 62.1041 35.4631 63.7414 35.4631C64.4328 35.4631 65.112 35.267 65.779 34.887C66.4461 34.507 66.9434 34.0043 67.283 33.3669H67.3315V35.1199ZM75.6032 32.7907C75.0817 32.4597 74.7785 31.8958 74.6936 31.0868V31.1113H71.9283C71.9525 31.8591 72.0981 32.5088 72.377 33.0482C72.656 33.5875 73.0441 34.0411 73.5293 34.4089C74.0144 34.7644 74.5966 35.0341 75.2636 35.218C75.9307 35.4018 76.6584 35.4877 77.4468 35.4877C78.0896 35.4877 78.7446 35.4141 79.3995 35.267C80.0545 35.1199 80.6609 34.8747 81.1946 34.556C81.7282 34.2373 82.1648 33.8082 82.5045 33.2933C82.8441 32.7662 83.0138 32.141 83.0138 31.3932C83.0138 30.7803 82.8926 30.2532 82.6621 29.8364C82.4317 29.4196 82.1285 29.0763 81.7525 28.7944C81.3765 28.5124 80.952 28.2918 80.4668 28.1324C79.9817 27.973 79.4965 27.8259 78.9993 27.7156C78.8896 27.6919 78.7804 27.6681 78.6718 27.6444C78.2762 27.5583 77.8881 27.4738 77.5074 27.3969C77.0223 27.2988 76.5978 27.1762 76.2218 27.0414C75.8458 26.8943 75.5426 26.7227 75.3122 26.5143C75.0817 26.3059 74.9604 26.0362 74.9604 25.6929C74.9604 25.411 75.0453 25.1903 75.203 25.0187C75.3728 24.8471 75.5669 24.7122 75.7973 24.6264C76.0399 24.5406 76.2825 24.4793 76.5493 24.4425C76.8161 24.4058 77.0466 24.3935 77.2406 24.3935C77.8471 24.3935 78.3928 24.5038 78.8659 24.7367C79.3389 24.9574 79.63 25.411 79.7634 26.0729H82.6257C82.5408 25.3742 82.3468 24.7735 82.0314 24.2832C81.7161 23.7928 81.328 23.3883 80.8549 23.0818C80.3819 22.7631 79.8483 22.5424 79.2661 22.4076C78.6839 22.2727 78.0654 22.1992 77.4225 22.1992C76.8646 22.1992 76.2703 22.2605 75.6518 22.3708C75.0332 22.4934 74.4753 22.6895 73.9659 22.9715C73.4686 23.2534 73.0441 23.6212 72.7166 24.087C72.3892 24.5529 72.2194 25.1168 72.2194 25.8033C72.2194 26.4407 72.3285 26.9678 72.559 27.3969C72.7773 27.8259 73.0805 28.1814 73.4565 28.4511C73.8325 28.7331 74.257 28.9537 74.73 29.1131C75.203 29.2725 75.7003 29.4196 76.2097 29.5299C76.2995 29.5498 76.3889 29.5698 76.478 29.5896C76.8822 29.6797 77.2797 29.7683 77.6772 29.8486C78.1624 29.9467 78.5869 30.0693 78.9629 30.2041C79.3389 30.3512 79.6421 30.5229 79.8847 30.7558C80.1272 30.9764 80.2607 31.2706 80.2728 31.6262C80.2849 31.9817 80.2 32.2636 80.0181 32.4843C79.824 32.7049 79.5936 32.8765 79.3025 32.9869C79.0235 33.0972 78.7082 33.183 78.3807 33.2198C78.0532 33.2566 77.7622 33.2811 77.5074 33.2811C76.7676 33.2811 76.1369 33.1095 75.6032 32.7907ZM85.8156 22.5424H83.7658V24.6387H85.8398V32.0552C85.852 32.5701 85.9126 33.0359 85.9975 33.4404C86.0945 33.845 86.2522 34.176 86.5069 34.4457C86.7495 34.7154 87.1012 34.9237 87.5378 35.0586C87.9745 35.1934 88.5566 35.267 89.2844 35.267C89.5876 35.267 89.8787 35.2547 90.1698 35.218C90.3221 35.1979 90.4818 35.1814 90.6447 35.1647C90.78 35.1507 90.9176 35.1366 91.0552 35.1199V32.9746C90.8611 33.0236 90.667 33.0482 90.473 33.0604C90.2789 33.0727 90.0849 33.0727 89.8908 33.0727C89.5754 33.0727 89.345 33.0359 89.1631 32.9624C88.9811 32.8888 88.8477 32.7785 88.7628 32.6314C88.6779 32.4843 88.6173 32.3004 88.593 32.092C88.5688 31.8713 88.5566 31.6262 88.5566 31.3319V24.6142H91.0309V22.5424H88.5566V18.7667H85.8156V22.5424ZM95.567 22.5424H92.9715V39.7659H95.7125V33.4895H95.7611C95.9794 33.8205 96.2341 34.1147 96.5494 34.3721C96.8526 34.6295 97.2044 34.8379 97.5682 34.9973C97.9321 35.1567 98.3202 35.2793 98.7205 35.3528C99.1207 35.4264 99.5209 35.4631 99.9212 35.4631C100.843 35.4631 101.631 35.2793 102.311 34.9115C102.99 34.5437 103.548 34.0656 103.984 33.4527C104.421 32.8398 104.748 32.141 104.967 31.3442C105.185 30.5596 105.294 29.7383 105.294 28.8925C105.294 27.973 105.173 27.1027 104.93 26.2936C104.688 25.4845 104.336 24.7735 103.851 24.1606C103.366 23.5476 102.759 23.0696 102.032 22.7263C101.304 22.3708 100.455 22.1992 99.4724 22.1992C98.6598 22.1992 97.92 22.3586 97.2286 22.6773C96.5373 22.996 96.0036 23.5109 95.6155 24.2464H95.567V22.5424ZM102.335 27.1885C102.48 27.7279 102.553 28.2795 102.553 28.8434C102.553 29.3951 102.492 29.9344 102.383 30.4616C102.262 30.9887 102.056 31.4545 101.777 31.8713C101.498 32.2759 101.146 32.6191 100.71 32.8765C100.273 33.134 99.7514 33.2688 99.1207 33.2688C98.5628 33.2688 98.0655 33.1585 97.641 32.9256C97.2165 32.7049 96.8526 32.3984 96.5494 32.0062C96.2341 31.6139 96.0158 31.1481 95.8581 30.6087C95.7004 30.0693 95.6276 29.4809 95.6276 28.8434C95.6276 27.495 95.9187 26.4162 96.5009 25.6071C97.0831 24.798 97.9563 24.3935 99.1086 24.3935C99.6665 24.3935 100.164 24.5283 100.6 24.7735C101.025 25.0187 101.389 25.3497 101.68 25.7665C101.971 26.1833 102.189 26.6491 102.335 27.1885ZM110.134 17.7493H107.392V20.3726H110.134V17.7493ZM110.134 22.5424H107.392V35.1199H110.134V22.5424ZM115.325 17.7493H112.584V35.1199H115.325V17.7493ZM121.074 34.9605C121.85 35.2915 122.735 35.4631 123.73 35.4631C124.724 35.4631 125.61 35.2915 126.386 34.9605C127.162 34.6295 127.829 34.176 128.363 33.5875C128.897 32.9991 129.309 32.3004 129.588 31.4913C129.867 30.6822 130.012 29.7873 130.012 28.8189C130.012 27.8627 129.867 26.9801 129.588 26.171C129.309 25.3619 128.897 24.6632 128.363 24.0748C127.817 23.4986 127.162 23.0328 126.386 22.7018C125.61 22.3708 124.724 22.1992 123.73 22.1992C122.735 22.1992 121.85 22.3708 121.074 22.7018C120.297 23.0328 119.63 23.4864 119.097 24.0748C118.563 24.6632 118.151 25.3619 117.872 26.171C117.593 26.9801 117.447 27.8627 117.447 28.8189C117.447 29.7873 117.593 30.6822 117.872 31.4913C118.151 32.3004 118.563 32.9991 119.097 33.5875C119.642 34.1637 120.297 34.6295 121.074 34.9605ZM125.319 32.8765C124.87 33.134 124.336 33.2688 123.73 33.2688C123.123 33.2688 122.59 33.1462 122.141 32.8765C121.692 32.6191 121.328 32.2759 121.037 31.8591C120.746 31.4423 120.528 30.9642 120.394 30.4371C120.261 29.9099 120.188 29.3705 120.188 28.8189C120.188 28.2795 120.261 27.7524 120.394 27.213C120.54 26.6736 120.746 26.2078 121.037 25.791C121.328 25.3865 121.692 25.0432 122.141 24.7858C122.59 24.5283 123.123 24.3935 123.73 24.3935C124.336 24.3935 124.87 24.5283 125.319 24.7858C125.767 25.0432 126.131 25.3742 126.422 25.791C126.713 26.2078 126.932 26.6736 127.065 27.213C127.199 27.7524 127.271 28.2795 127.271 28.8189C127.271 29.3705 127.199 29.9099 127.065 30.4371C126.92 30.9642 126.713 31.4423 126.422 31.8591C126.131 32.2759 125.767 32.6191 125.319 32.8765ZM132.887 22.5424H130.837V24.6387H132.911V32.0552C132.923 32.5701 132.984 33.0359 133.069 33.4404C133.166 33.845 133.323 34.176 133.578 34.4457C133.821 34.7154 134.172 34.9237 134.609 35.0586C135.046 35.1934 135.628 35.267 136.356 35.267C136.659 35.267 136.95 35.2547 137.241 35.218C137.393 35.1979 137.553 35.1814 137.716 35.1647C137.851 35.1507 137.989 35.1366 138.126 35.1199V32.9746C137.932 33.0236 137.738 33.0482 137.544 33.0604C137.35 33.0727 137.156 33.0727 136.962 33.0727C136.647 33.0727 136.416 33.0359 136.234 32.9624C136.052 32.8888 135.919 32.7785 135.834 32.6314C135.749 32.4843 135.689 32.3004 135.664 32.092C135.64 31.8713 135.628 31.6262 135.628 31.3319V24.6142H138.102V22.5424H135.628V18.7667H132.887V22.5424Z" fill="white"/>
</svg>
